<?xml version="1.0" encoding="UTF-8"?>
<svg xmlns="http://www.w3.org/2000/svg" width="960" height="540" viewBox="0 0 960 540" fill="none" stroke-linejoin="round" stroke-linecap="round">
  <!-- cut 4 start: dense wall after the flip -->
<rect width="960" height="540" fill="#f6f3ec"/><g opacity="1.00" transform="translate(23.0 40.0) rotate(-0.8) translate(-51.0 -66.0)"><rect x="0" y="0" width="102.0" height="132.0" rx="3" fill="rgba(58,58,58,0.18)" stroke="#3a3a3a" stroke-width="1.45"/><path d="M22.4,0 L0,22.4 L22.4,22.4 Z" fill="rgba(58,58,58,0.28)" stroke="#3a3a3a" stroke-width="1.09"/><line x1="22.4" y1="0" x2="22.4" y2="22.4" stroke="#3a3a3a" stroke-width="1.09"/><line x1="18.4" y1="60.7" x2="71.4" y2="60.7" stroke="#3a3a3a" stroke-width="1.1" opacity="0.45"/><line x1="18.4" y1="81.8" x2="71.4" y2="81.8" stroke="#3a3a3a" stroke-width="1.1" opacity="0.45"/></g><g opacity="1.00" transform="translate(107.0 40.0) rotate(3.2) translate(-51.0 -66.0)"><rect x="0" y="0" width="102.0" height="132.0" rx="3" fill="rgba(58,58,58,0.24)" stroke="#3a3a3a" stroke-width="1.45"/><path d="M22.4,0 L0,22.4 L22.4,22.4 Z" fill="rgba(58,58,58,0.28)" stroke="#3a3a3a" stroke-width="1.09"/><line x1="22.4" y1="0" x2="22.4" y2="22.4" stroke="#3a3a3a" stroke-width="1.09"/><line x1="18.4" y1="60.7" x2="71.4" y2="60.7" stroke="#3a3a3a" stroke-width="1.1" opacity="0.45"/><line x1="18.4" y1="81.8" x2="71.4" y2="81.8" stroke="#3a3a3a" stroke-width="1.1" opacity="0.45"/></g><g opacity="1.00" transform="translate(191.0 40.0) rotate(0.5) translate(-51.0 -66.0)"><rect x="0" y="0" width="102.0" height="132.0" rx="3" fill="rgba(58,58,58,0.30)" stroke="#3a3a3a" stroke-width="1.45"/><path d="M22.4,0 L0,22.4 L22.4,22.4 Z" fill="rgba(58,58,58,0.28)" stroke="#3a3a3a" stroke-width="1.09"/><line x1="22.4" y1="0" x2="22.4" y2="22.4" stroke="#3a3a3a" stroke-width="1.09"/><line x1="18.4" y1="60.7" x2="71.4" y2="60.7" stroke="#3a3a3a" stroke-width="1.1" opacity="0.45"/><line x1="18.4" y1="81.8" x2="71.4" y2="81.8" stroke="#3a3a3a" stroke-width="1.1" opacity="0.45"/></g><g opacity="1.00" transform="translate(275.0 40.0) rotate(-1.4) translate(-51.0 -66.0)"><rect x="0" y="0" width="102.0" height="132.0" rx="3" fill="rgba(58,58,58,0.24)" stroke="#3a3a3a" stroke-width="1.45"/><path d="M22.4,0 L0,22.4 L22.4,22.4 Z" fill="rgba(58,58,58,0.28)" stroke="#3a3a3a" stroke-width="1.09"/><line x1="22.4" y1="0" x2="22.4" y2="22.4" stroke="#3a3a3a" stroke-width="1.09"/><line x1="18.4" y1="60.7" x2="71.4" y2="60.7" stroke="#3a3a3a" stroke-width="1.1" opacity="0.45"/><line x1="18.4" y1="81.8" x2="71.4" y2="81.8" stroke="#3a3a3a" stroke-width="1.1" opacity="0.45"/></g><g opacity="1.00" transform="translate(359.0 40.0) rotate(-0.7) translate(-51.0 -66.0)"><rect x="0" y="0" width="102.0" height="132.0" rx="3" fill="rgba(58,58,58,0.30)" stroke="#3a3a3a" stroke-width="1.45"/><path d="M22.4,0 L0,22.4 L22.4,22.4 Z" fill="rgba(58,58,58,0.28)" stroke="#3a3a3a" stroke-width="1.09"/><line x1="22.4" y1="0" x2="22.4" y2="22.4" stroke="#3a3a3a" stroke-width="1.09"/><line x1="18.4" y1="60.7" x2="71.4" y2="60.7" stroke="#3a3a3a" stroke-width="1.1" opacity="0.45"/><line x1="18.4" y1="81.8" x2="71.4" y2="81.8" stroke="#3a3a3a" stroke-width="1.1" opacity="0.45"/></g><g opacity="1.00" transform="translate(443.0 40.0) rotate(1.7) translate(-51.0 -66.0)"><rect x="0" y="0" width="102.0" height="132.0" rx="3" fill="rgba(58,58,58,0.18)" stroke="#3a3a3a" stroke-width="1.45"/><path d="M22.4,0 L0,22.4 L22.4,22.4 Z" fill="rgba(58,58,58,0.28)" stroke="#3a3a3a" stroke-width="1.09"/><line x1="22.4" y1="0" x2="22.4" y2="22.4" stroke="#3a3a3a" stroke-width="1.09"/><line x1="18.4" y1="60.7" x2="71.4" y2="60.7" stroke="#3a3a3a" stroke-width="1.1" opacity="0.45"/><line x1="18.4" y1="81.8" x2="71.4" y2="81.8" stroke="#3a3a3a" stroke-width="1.1" opacity="0.45"/></g><g opacity="1.00" transform="translate(527.0 40.0) rotate(1.8) translate(-51.0 -66.0)"><rect x="0" y="0" width="102.0" height="132.0" rx="3" fill="rgba(58,58,58,0.30)" stroke="#3a3a3a" stroke-width="1.45"/><path d="M22.4,0 L0,22.4 L22.4,22.4 Z" fill="rgba(58,58,58,0.28)" stroke="#3a3a3a" stroke-width="1.09"/><line x1="22.4" y1="0" x2="22.4" y2="22.4" stroke="#3a3a3a" stroke-width="1.09"/><line x1="18.4" y1="60.7" x2="71.4" y2="60.7" stroke="#3a3a3a" stroke-width="1.1" opacity="0.45"/><line x1="18.4" y1="81.8" x2="71.4" y2="81.8" stroke="#3a3a3a" stroke-width="1.1" opacity="0.45"/></g><g opacity="1.00" transform="translate(611.0 40.0) rotate(3.2) translate(-51.0 -66.0)"><rect x="0" y="0" width="102.0" height="132.0" rx="3" fill="rgba(58,58,58,0.18)" stroke="#3a3a3a" stroke-width="1.45"/><path d="M22.4,0 L0,22.4 L22.4,22.4 Z" fill="rgba(58,58,58,0.28)" stroke="#3a3a3a" stroke-width="1.09"/><line x1="22.4" y1="0" x2="22.4" y2="22.4" stroke="#3a3a3a" stroke-width="1.09"/><line x1="18.4" y1="60.7" x2="71.4" y2="60.7" stroke="#3a3a3a" stroke-width="1.1" opacity="0.45"/><line x1="18.4" y1="81.8" x2="71.4" y2="81.8" stroke="#3a3a3a" stroke-width="1.1" opacity="0.45"/></g><g opacity="1.00" transform="translate(695.0 40.0) rotate(-0.4) translate(-51.0 -66.0)"><rect x="0" y="0" width="102.0" height="132.0" rx="3" fill="rgba(58,58,58,0.18)" stroke="#3a3a3a" stroke-width="1.45"/><path d="M22.4,0 L0,22.4 L22.4,22.4 Z" fill="rgba(58,58,58,0.28)" stroke="#3a3a3a" stroke-width="1.09"/><line x1="22.4" y1="0" x2="22.4" y2="22.4" stroke="#3a3a3a" stroke-width="1.09"/><line x1="18.4" y1="60.7" x2="71.4" y2="60.7" stroke="#3a3a3a" stroke-width="1.1" opacity="0.45"/><line x1="18.4" y1="81.8" x2="71.4" y2="81.8" stroke="#3a3a3a" stroke-width="1.1" opacity="0.45"/></g><g opacity="1.00" transform="translate(779.0 40.0) rotate(3.1) translate(-51.0 -66.0)"><rect x="0" y="0" width="102.0" height="132.0" rx="3" fill="rgba(58,58,58,0.30)" stroke="#3a3a3a" stroke-width="1.45"/><path d="M22.4,0 L0,22.4 L22.4,22.4 Z" fill="rgba(58,58,58,0.28)" stroke="#3a3a3a" stroke-width="1.09"/><line x1="22.4" y1="0" x2="22.4" y2="22.4" stroke="#3a3a3a" stroke-width="1.09"/><line x1="18.4" y1="60.7" x2="71.4" y2="60.7" stroke="#3a3a3a" stroke-width="1.1" opacity="0.45"/><line x1="18.4" y1="81.8" x2="71.4" y2="81.8" stroke="#3a3a3a" stroke-width="1.1" opacity="0.45"/></g><g opacity="1.00" transform="translate(863.0 40.0) rotate(-1.2) translate(-51.0 -66.0)"><rect x="0" y="0" width="102.0" height="132.0" rx="3" fill="rgba(58,58,58,0.24)" stroke="#3a3a3a" stroke-width="1.45"/><path d="M22.4,0 L0,22.4 L22.4,22.4 Z" fill="rgba(58,58,58,0.28)" stroke="#3a3a3a" stroke-width="1.09"/><line x1="22.4" y1="0" x2="22.4" y2="22.4" stroke="#3a3a3a" stroke-width="1.09"/><line x1="18.4" y1="60.7" x2="71.4" y2="60.7" stroke="#3a3a3a" stroke-width="1.1" opacity="0.45"/><line x1="18.4" y1="81.8" x2="71.4" y2="81.8" stroke="#3a3a3a" stroke-width="1.1" opacity="0.45"/></g><g opacity="1.00" transform="translate(947.0 40.0) rotate(1.0) translate(-51.0 -66.0)"><rect x="0" y="0" width="102.0" height="132.0" rx="3" fill="rgba(58,58,58,0.30)" stroke="#3a3a3a" stroke-width="1.45"/><path d="M22.4,0 L0,22.4 L22.4,22.4 Z" fill="rgba(58,58,58,0.28)" stroke="#3a3a3a" stroke-width="1.09"/><line x1="22.4" y1="0" x2="22.4" y2="22.4" stroke="#3a3a3a" stroke-width="1.09"/><line x1="18.4" y1="60.7" x2="71.4" y2="60.7" stroke="#3a3a3a" stroke-width="1.1" opacity="0.45"/><line x1="18.4" y1="81.8" x2="71.4" y2="81.8" stroke="#3a3a3a" stroke-width="1.1" opacity="0.45"/></g><g opacity="1.00" transform="translate(58.3 140.0) rotate(0.5) translate(-51.0 -66.0)"><rect x="0" y="0" width="102.0" height="132.0" rx="3" fill="rgba(58,58,58,0.18)" stroke="#3a3a3a" stroke-width="1.45"/><path d="M22.4,0 L0,22.4 L22.4,22.4 Z" fill="rgba(58,58,58,0.28)" stroke="#3a3a3a" stroke-width="1.09"/><line x1="22.4" y1="0" x2="22.4" y2="22.4" stroke="#3a3a3a" stroke-width="1.09"/><line x1="18.4" y1="60.7" x2="71.4" y2="60.7" stroke="#3a3a3a" stroke-width="1.1" opacity="0.45"/><line x1="18.4" y1="81.8" x2="71.4" y2="81.8" stroke="#3a3a3a" stroke-width="1.1" opacity="0.45"/></g><g opacity="1.00" transform="translate(142.3 140.0) rotate(1.8) translate(-51.0 -66.0)"><rect x="0" y="0" width="102.0" height="132.0" rx="3" fill="rgba(58,58,58,0.18)" stroke="#3a3a3a" stroke-width="1.45"/><path d="M22.4,0 L0,22.4 L22.4,22.4 Z" fill="rgba(58,58,58,0.28)" stroke="#3a3a3a" stroke-width="1.09"/><line x1="22.4" y1="0" x2="22.4" y2="22.4" stroke="#3a3a3a" stroke-width="1.09"/><line x1="18.4" y1="60.7" x2="71.4" y2="60.7" stroke="#3a3a3a" stroke-width="1.1" opacity="0.45"/><line x1="18.4" y1="81.8" x2="71.4" y2="81.8" stroke="#3a3a3a" stroke-width="1.1" opacity="0.45"/></g><g opacity="1.00" transform="translate(226.3 140.0) rotate(-0.4) translate(-51.0 -66.0)"><rect x="0" y="0" width="102.0" height="132.0" rx="3" fill="rgba(58,58,58,0.24)" stroke="#3a3a3a" stroke-width="1.45"/><path d="M22.4,0 L0,22.4 L22.4,22.4 Z" fill="rgba(58,58,58,0.28)" stroke="#3a3a3a" stroke-width="1.09"/><line x1="22.4" y1="0" x2="22.4" y2="22.4" stroke="#3a3a3a" stroke-width="1.09"/><line x1="18.4" y1="60.7" x2="71.4" y2="60.7" stroke="#3a3a3a" stroke-width="1.1" opacity="0.45"/><line x1="18.4" y1="81.8" x2="71.4" y2="81.8" stroke="#3a3a3a" stroke-width="1.1" opacity="0.45"/></g><g opacity="1.00" transform="translate(310.3 140.0) rotate(2.2) translate(-51.0 -66.0)"><rect x="0" y="0" width="102.0" height="132.0" rx="3" fill="rgba(58,58,58,0.18)" stroke="#3a3a3a" stroke-width="1.45"/><path d="M22.4,0 L0,22.4 L22.4,22.4 Z" fill="rgba(58,58,58,0.28)" stroke="#3a3a3a" stroke-width="1.09"/><line x1="22.4" y1="0" x2="22.4" y2="22.4" stroke="#3a3a3a" stroke-width="1.09"/><line x1="18.4" y1="60.7" x2="71.4" y2="60.7" stroke="#3a3a3a" stroke-width="1.1" opacity="0.45"/><line x1="18.4" y1="81.8" x2="71.4" y2="81.8" stroke="#3a3a3a" stroke-width="1.1" opacity="0.45"/></g><g opacity="1.00" transform="translate(394.3 140.0) rotate(-2.7) translate(-51.0 -66.0)"><rect x="0" y="0" width="102.0" height="132.0" rx="3" fill="rgba(58,58,58,0.24)" stroke="#3a3a3a" stroke-width="1.45"/><path d="M22.4,0 L0,22.4 L22.4,22.4 Z" fill="rgba(58,58,58,0.28)" stroke="#3a3a3a" stroke-width="1.09"/><line x1="22.4" y1="0" x2="22.4" y2="22.4" stroke="#3a3a3a" stroke-width="1.09"/><line x1="18.4" y1="60.7" x2="71.4" y2="60.7" stroke="#3a3a3a" stroke-width="1.1" opacity="0.45"/><line x1="18.4" y1="81.8" x2="71.4" y2="81.8" stroke="#3a3a3a" stroke-width="1.1" opacity="0.45"/></g><g opacity="1.00" transform="translate(478.3 140.0) rotate(1.5) translate(-51.0 -66.0)"><rect x="0" y="0" width="102.0" height="132.0" rx="3" fill="rgba(58,58,58,0.18)" stroke="#3a3a3a" stroke-width="1.45"/><path d="M22.4,0 L0,22.4 L22.4,22.4 Z" fill="rgba(58,58,58,0.28)" stroke="#3a3a3a" stroke-width="1.09"/><line x1="22.4" y1="0" x2="22.4" y2="22.4" stroke="#3a3a3a" stroke-width="1.09"/><line x1="18.4" y1="60.7" x2="71.4" y2="60.7" stroke="#3a3a3a" stroke-width="1.1" opacity="0.45"/><line x1="18.4" y1="81.8" x2="71.4" y2="81.8" stroke="#3a3a3a" stroke-width="1.1" opacity="0.45"/></g><g opacity="1.00" transform="translate(562.3 140.0) rotate(0.4) translate(-51.0 -66.0)"><rect x="0" y="0" width="102.0" height="132.0" rx="3" fill="rgba(58,58,58,0.18)" stroke="#3a3a3a" stroke-width="1.45"/><path d="M22.4,0 L0,22.4 L22.4,22.4 Z" fill="rgba(58,58,58,0.28)" stroke="#3a3a3a" stroke-width="1.09"/><line x1="22.4" y1="0" x2="22.4" y2="22.4" stroke="#3a3a3a" stroke-width="1.09"/><line x1="18.4" y1="60.7" x2="71.4" y2="60.7" stroke="#3a3a3a" stroke-width="1.1" opacity="0.45"/><line x1="18.4" y1="81.8" x2="71.4" y2="81.8" stroke="#3a3a3a" stroke-width="1.1" opacity="0.45"/></g><g opacity="1.00" transform="translate(646.3 140.0) rotate(-2.4) translate(-51.0 -66.0)"><rect x="0" y="0" width="102.0" height="132.0" rx="3" fill="rgba(58,58,58,0.18)" stroke="#3a3a3a" stroke-width="1.45"/><path d="M22.4,0 L0,22.4 L22.4,22.4 Z" fill="rgba(58,58,58,0.28)" stroke="#3a3a3a" stroke-width="1.09"/><line x1="22.4" y1="0" x2="22.4" y2="22.4" stroke="#3a3a3a" stroke-width="1.09"/><line x1="18.4" y1="60.7" x2="71.4" y2="60.7" stroke="#3a3a3a" stroke-width="1.1" opacity="0.45"/><line x1="18.4" y1="81.8" x2="71.4" y2="81.8" stroke="#3a3a3a" stroke-width="1.1" opacity="0.45"/></g><g opacity="1.00" transform="translate(730.3 140.0) rotate(1.2) translate(-51.0 -66.0)"><rect x="0" y="0" width="102.0" height="132.0" rx="3" fill="rgba(58,58,58,0.18)" stroke="#3a3a3a" stroke-width="1.45"/><path d="M22.4,0 L0,22.4 L22.4,22.4 Z" fill="rgba(58,58,58,0.28)" stroke="#3a3a3a" stroke-width="1.09"/><line x1="22.4" y1="0" x2="22.4" y2="22.4" stroke="#3a3a3a" stroke-width="1.09"/><line x1="18.4" y1="60.7" x2="71.4" y2="60.7" stroke="#3a3a3a" stroke-width="1.1" opacity="0.45"/><line x1="18.4" y1="81.8" x2="71.4" y2="81.8" stroke="#3a3a3a" stroke-width="1.1" opacity="0.45"/></g><g opacity="1.00" transform="translate(814.3 140.0) rotate(-2.9) translate(-51.0 -66.0)"><rect x="0" y="0" width="102.0" height="132.0" rx="3" fill="rgba(58,58,58,0.24)" stroke="#3a3a3a" stroke-width="1.45"/><path d="M22.4,0 L0,22.4 L22.4,22.4 Z" fill="rgba(58,58,58,0.28)" stroke="#3a3a3a" stroke-width="1.09"/><line x1="22.4" y1="0" x2="22.4" y2="22.4" stroke="#3a3a3a" stroke-width="1.09"/><line x1="18.4" y1="60.7" x2="71.4" y2="60.7" stroke="#3a3a3a" stroke-width="1.1" opacity="0.45"/><line x1="18.4" y1="81.8" x2="71.4" y2="81.8" stroke="#3a3a3a" stroke-width="1.1" opacity="0.45"/></g><g opacity="1.00" transform="translate(898.3 140.0) rotate(-1.8) translate(-51.0 -66.0)"><rect x="0" y="0" width="102.0" height="132.0" rx="3" fill="rgba(58,58,58,0.18)" stroke="#3a3a3a" stroke-width="1.45"/><path d="M22.4,0 L0,22.4 L22.4,22.4 Z" fill="rgba(58,58,58,0.28)" stroke="#3a3a3a" stroke-width="1.09"/><line x1="22.4" y1="0" x2="22.4" y2="22.4" stroke="#3a3a3a" stroke-width="1.09"/><line x1="18.4" y1="60.7" x2="71.4" y2="60.7" stroke="#3a3a3a" stroke-width="1.1" opacity="0.45"/><line x1="18.4" y1="81.8" x2="71.4" y2="81.8" stroke="#3a3a3a" stroke-width="1.1" opacity="0.45"/></g><g opacity="1.00" transform="translate(982.3 140.0) rotate(0.7) translate(-51.0 -66.0)"><rect x="0" y="0" width="102.0" height="132.0" rx="3" fill="rgba(58,58,58,0.18)" stroke="#3a3a3a" stroke-width="1.45"/><path d="M22.4,0 L0,22.4 L22.4,22.4 Z" fill="rgba(58,58,58,0.28)" stroke="#3a3a3a" stroke-width="1.09"/><line x1="22.4" y1="0" x2="22.4" y2="22.4" stroke="#3a3a3a" stroke-width="1.09"/><line x1="18.4" y1="60.7" x2="71.4" y2="60.7" stroke="#3a3a3a" stroke-width="1.1" opacity="0.45"/><line x1="18.4" y1="81.8" x2="71.4" y2="81.8" stroke="#3a3a3a" stroke-width="1.1" opacity="0.45"/></g><g opacity="1.00" transform="translate(23.0 240.0) rotate(-0.4) translate(-51.0 -66.0)"><rect x="0" y="0" width="102.0" height="132.0" rx="3" fill="rgba(58,58,58,0.18)" stroke="#3a3a3a" stroke-width="1.45"/><path d="M22.4,0 L0,22.4 L22.4,22.4 Z" fill="rgba(58,58,58,0.28)" stroke="#3a3a3a" stroke-width="1.09"/><line x1="22.4" y1="0" x2="22.4" y2="22.4" stroke="#3a3a3a" stroke-width="1.09"/><line x1="18.4" y1="60.7" x2="71.4" y2="60.7" stroke="#3a3a3a" stroke-width="1.1" opacity="0.45"/><line x1="18.4" y1="81.8" x2="71.4" y2="81.8" stroke="#3a3a3a" stroke-width="1.1" opacity="0.45"/></g><g opacity="1.00" transform="translate(107.0 240.0) rotate(-1.3) translate(-51.0 -66.0)"><rect x="0" y="0" width="102.0" height="132.0" rx="3" fill="rgba(58,58,58,0.18)" stroke="#3a3a3a" stroke-width="1.45"/><path d="M22.4,0 L0,22.4 L22.4,22.4 Z" fill="rgba(58,58,58,0.28)" stroke="#3a3a3a" stroke-width="1.09"/><line x1="22.4" y1="0" x2="22.4" y2="22.4" stroke="#3a3a3a" stroke-width="1.09"/><line x1="18.4" y1="60.7" x2="71.4" y2="60.7" stroke="#3a3a3a" stroke-width="1.1" opacity="0.45"/><line x1="18.4" y1="81.8" x2="71.4" y2="81.8" stroke="#3a3a3a" stroke-width="1.1" opacity="0.45"/></g><g opacity="1.00" transform="translate(191.0 240.0) rotate(-2.5) translate(-51.0 -66.0)"><rect x="0" y="0" width="102.0" height="132.0" rx="3" fill="rgba(58,58,58,0.18)" stroke="#3a3a3a" stroke-width="1.45"/><path d="M22.4,0 L0,22.4 L22.4,22.4 Z" fill="rgba(58,58,58,0.28)" stroke="#3a3a3a" stroke-width="1.09"/><line x1="22.4" y1="0" x2="22.4" y2="22.4" stroke="#3a3a3a" stroke-width="1.09"/><line x1="18.4" y1="60.7" x2="71.4" y2="60.7" stroke="#3a3a3a" stroke-width="1.1" opacity="0.45"/><line x1="18.4" y1="81.8" x2="71.4" y2="81.8" stroke="#3a3a3a" stroke-width="1.1" opacity="0.45"/></g><g opacity="1.00" transform="translate(275.0 240.0) rotate(-0.6) translate(-51.0 -66.0)"><rect x="0" y="0" width="102.0" height="132.0" rx="3" fill="rgba(58,58,58,0.30)" stroke="#3a3a3a" stroke-width="1.45"/><path d="M22.4,0 L0,22.4 L22.4,22.4 Z" fill="rgba(58,58,58,0.28)" stroke="#3a3a3a" stroke-width="1.09"/><line x1="22.4" y1="0" x2="22.4" y2="22.4" stroke="#3a3a3a" stroke-width="1.09"/><line x1="18.4" y1="60.7" x2="71.4" y2="60.7" stroke="#3a3a3a" stroke-width="1.1" opacity="0.45"/><line x1="18.4" y1="81.8" x2="71.4" y2="81.8" stroke="#3a3a3a" stroke-width="1.1" opacity="0.45"/></g><g opacity="1.00" transform="translate(359.0 240.0) rotate(1.0) translate(-51.0 -66.0)"><rect x="0" y="0" width="102.0" height="132.0" rx="3" fill="rgba(58,58,58,0.24)" stroke="#3a3a3a" stroke-width="1.45"/><path d="M22.4,0 L0,22.4 L22.4,22.4 Z" fill="rgba(58,58,58,0.28)" stroke="#3a3a3a" stroke-width="1.09"/><line x1="22.4" y1="0" x2="22.4" y2="22.4" stroke="#3a3a3a" stroke-width="1.09"/><line x1="18.4" y1="60.7" x2="71.4" y2="60.7" stroke="#3a3a3a" stroke-width="1.1" opacity="0.45"/><line x1="18.4" y1="81.8" x2="71.4" y2="81.8" stroke="#3a3a3a" stroke-width="1.1" opacity="0.45"/></g><g opacity="1.00" transform="translate(443.0 240.0) rotate(-1.7) translate(-51.0 -66.0)"><rect x="0" y="0" width="102.0" height="132.0" rx="3" fill="rgba(58,58,58,0.18)" stroke="#3a3a3a" stroke-width="1.45"/><path d="M22.4,0 L0,22.4 L22.4,22.4 Z" fill="rgba(58,58,58,0.28)" stroke="#3a3a3a" stroke-width="1.09"/><line x1="22.4" y1="0" x2="22.4" y2="22.4" stroke="#3a3a3a" stroke-width="1.09"/><line x1="18.4" y1="60.7" x2="71.4" y2="60.7" stroke="#3a3a3a" stroke-width="1.1" opacity="0.45"/><line x1="18.4" y1="81.8" x2="71.4" y2="81.8" stroke="#3a3a3a" stroke-width="1.1" opacity="0.45"/></g><g opacity="1.00" transform="translate(527.0 240.0) rotate(-2.3) translate(-51.0 -66.0)"><rect x="0" y="0" width="102.0" height="132.0" rx="3" fill="rgba(58,58,58,0.24)" stroke="#3a3a3a" stroke-width="1.45"/><path d="M22.4,0 L0,22.4 L22.4,22.4 Z" fill="rgba(58,58,58,0.28)" stroke="#3a3a3a" stroke-width="1.09"/><line x1="22.4" y1="0" x2="22.4" y2="22.4" stroke="#3a3a3a" stroke-width="1.09"/><line x1="18.4" y1="60.7" x2="71.4" y2="60.7" stroke="#3a3a3a" stroke-width="1.1" opacity="0.45"/><line x1="18.4" y1="81.8" x2="71.4" y2="81.8" stroke="#3a3a3a" stroke-width="1.1" opacity="0.45"/></g><g opacity="1.00" transform="translate(611.0 240.0) rotate(2.9) translate(-51.0 -66.0)"><rect x="0" y="0" width="102.0" height="132.0" rx="3" fill="rgba(58,58,58,0.24)" stroke="#3a3a3a" stroke-width="1.45"/><path d="M22.4,0 L0,22.4 L22.4,22.4 Z" fill="rgba(58,58,58,0.28)" stroke="#3a3a3a" stroke-width="1.09"/><line x1="22.4" y1="0" x2="22.4" y2="22.4" stroke="#3a3a3a" stroke-width="1.09"/><line x1="18.4" y1="60.7" x2="71.4" y2="60.7" stroke="#3a3a3a" stroke-width="1.1" opacity="0.45"/><line x1="18.4" y1="81.8" x2="71.4" y2="81.8" stroke="#3a3a3a" stroke-width="1.1" opacity="0.45"/></g><g opacity="1.00" transform="translate(695.0 240.0) rotate(-0.5) translate(-51.0 -66.0)"><rect x="0" y="0" width="102.0" height="132.0" rx="3" fill="rgba(58,58,58,0.30)" stroke="#3a3a3a" stroke-width="1.45"/><path d="M22.4,0 L0,22.4 L22.4,22.4 Z" fill="rgba(58,58,58,0.28)" stroke="#3a3a3a" stroke-width="1.09"/><line x1="22.4" y1="0" x2="22.4" y2="22.4" stroke="#3a3a3a" stroke-width="1.09"/><line x1="18.4" y1="60.7" x2="71.4" y2="60.7" stroke="#3a3a3a" stroke-width="1.1" opacity="0.45"/><line x1="18.4" y1="81.8" x2="71.4" y2="81.8" stroke="#3a3a3a" stroke-width="1.1" opacity="0.45"/></g><g opacity="1.00" transform="translate(779.0 240.0) rotate(-1.4) translate(-51.0 -66.0)"><rect x="0" y="0" width="102.0" height="132.0" rx="3" fill="rgba(58,58,58,0.18)" stroke="#3a3a3a" stroke-width="1.45"/><path d="M22.4,0 L0,22.4 L22.4,22.4 Z" fill="rgba(58,58,58,0.28)" stroke="#3a3a3a" stroke-width="1.09"/><line x1="22.4" y1="0" x2="22.4" y2="22.4" stroke="#3a3a3a" stroke-width="1.09"/><line x1="18.4" y1="60.7" x2="71.4" y2="60.7" stroke="#3a3a3a" stroke-width="1.1" opacity="0.45"/><line x1="18.4" y1="81.8" x2="71.4" y2="81.8" stroke="#3a3a3a" stroke-width="1.1" opacity="0.45"/></g><g opacity="1.00" transform="translate(863.0 240.0) rotate(2.4) translate(-51.0 -66.0)"><rect x="0" y="0" width="102.0" height="132.0" rx="3" fill="rgba(58,58,58,0.30)" stroke="#3a3a3a" stroke-width="1.45"/><path d="M22.4,0 L0,22.4 L22.4,22.4 Z" fill="rgba(58,58,58,0.28)" stroke="#3a3a3a" stroke-width="1.09"/><line x1="22.4" y1="0" x2="22.4" y2="22.4" stroke="#3a3a3a" stroke-width="1.09"/><line x1="18.4" y1="60.7" x2="71.4" y2="60.7" stroke="#3a3a3a" stroke-width="1.1" opacity="0.45"/><line x1="18.4" y1="81.8" x2="71.4" y2="81.8" stroke="#3a3a3a" stroke-width="1.1" opacity="0.45"/></g><g opacity="1.00" transform="translate(947.0 240.0) rotate(-0.2) translate(-51.0 -66.0)"><rect x="0" y="0" width="102.0" height="132.0" rx="3" fill="rgba(58,58,58,0.18)" stroke="#3a3a3a" stroke-width="1.45"/><path d="M22.4,0 L0,22.4 L22.4,22.4 Z" fill="rgba(58,58,58,0.28)" stroke="#3a3a3a" stroke-width="1.09"/><line x1="22.4" y1="0" x2="22.4" y2="22.4" stroke="#3a3a3a" stroke-width="1.09"/><line x1="18.4" y1="60.7" x2="71.4" y2="60.7" stroke="#3a3a3a" stroke-width="1.1" opacity="0.45"/><line x1="18.4" y1="81.8" x2="71.4" y2="81.8" stroke="#3a3a3a" stroke-width="1.1" opacity="0.45"/></g><g opacity="1.00" transform="translate(58.3 340.0) rotate(-2.3) translate(-51.0 -66.0)"><rect x="0" y="0" width="102.0" height="132.0" rx="3" fill="rgba(58,58,58,0.18)" stroke="#3a3a3a" stroke-width="1.45"/><path d="M22.4,0 L0,22.4 L22.4,22.4 Z" fill="rgba(58,58,58,0.28)" stroke="#3a3a3a" stroke-width="1.09"/><line x1="22.4" y1="0" x2="22.4" y2="22.4" stroke="#3a3a3a" stroke-width="1.09"/><line x1="18.4" y1="60.7" x2="71.4" y2="60.7" stroke="#3a3a3a" stroke-width="1.1" opacity="0.45"/><line x1="18.4" y1="81.8" x2="71.4" y2="81.8" stroke="#3a3a3a" stroke-width="1.1" opacity="0.45"/></g><g opacity="1.00" transform="translate(142.3 340.0) rotate(1.4) translate(-51.0 -66.0)"><rect x="0" y="0" width="102.0" height="132.0" rx="3" fill="rgba(58,58,58,0.30)" stroke="#3a3a3a" stroke-width="1.45"/><path d="M22.4,0 L0,22.4 L22.4,22.4 Z" fill="rgba(58,58,58,0.28)" stroke="#3a3a3a" stroke-width="1.09"/><line x1="22.4" y1="0" x2="22.4" y2="22.4" stroke="#3a3a3a" stroke-width="1.09"/><line x1="18.4" y1="60.7" x2="71.4" y2="60.7" stroke="#3a3a3a" stroke-width="1.1" opacity="0.45"/><line x1="18.4" y1="81.8" x2="71.4" y2="81.8" stroke="#3a3a3a" stroke-width="1.1" opacity="0.45"/></g><g opacity="1.00" transform="translate(226.3 340.0) rotate(2.3) translate(-51.0 -66.0)"><rect x="0" y="0" width="102.0" height="132.0" rx="3" fill="rgba(58,58,58,0.18)" stroke="#3a3a3a" stroke-width="1.45"/><path d="M22.4,0 L0,22.4 L22.4,22.4 Z" fill="rgba(58,58,58,0.28)" stroke="#3a3a3a" stroke-width="1.09"/><line x1="22.4" y1="0" x2="22.4" y2="22.4" stroke="#3a3a3a" stroke-width="1.09"/><line x1="18.4" y1="60.7" x2="71.4" y2="60.7" stroke="#3a3a3a" stroke-width="1.1" opacity="0.45"/><line x1="18.4" y1="81.8" x2="71.4" y2="81.8" stroke="#3a3a3a" stroke-width="1.1" opacity="0.45"/></g><g opacity="1.00" transform="translate(310.3 340.0) rotate(3.1) translate(-51.0 -66.0)"><rect x="0" y="0" width="102.0" height="132.0" rx="3" fill="rgba(58,58,58,0.30)" stroke="#3a3a3a" stroke-width="1.45"/><path d="M22.4,0 L0,22.4 L22.4,22.4 Z" fill="rgba(58,58,58,0.28)" stroke="#3a3a3a" stroke-width="1.09"/><line x1="22.4" y1="0" x2="22.4" y2="22.4" stroke="#3a3a3a" stroke-width="1.09"/><line x1="18.4" y1="60.7" x2="71.4" y2="60.7" stroke="#3a3a3a" stroke-width="1.1" opacity="0.45"/><line x1="18.4" y1="81.8" x2="71.4" y2="81.8" stroke="#3a3a3a" stroke-width="1.1" opacity="0.45"/></g><g opacity="1.00" transform="translate(394.3 340.0) rotate(-2.4) translate(-51.0 -66.0)"><rect x="0" y="0" width="102.0" height="132.0" rx="3" fill="rgba(58,58,58,0.24)" stroke="#3a3a3a" stroke-width="1.45"/><path d="M22.4,0 L0,22.4 L22.4,22.4 Z" fill="rgba(58,58,58,0.28)" stroke="#3a3a3a" stroke-width="1.09"/><line x1="22.4" y1="0" x2="22.4" y2="22.4" stroke="#3a3a3a" stroke-width="1.09"/><line x1="18.4" y1="60.7" x2="71.4" y2="60.7" stroke="#3a3a3a" stroke-width="1.1" opacity="0.45"/><line x1="18.4" y1="81.8" x2="71.4" y2="81.8" stroke="#3a3a3a" stroke-width="1.1" opacity="0.45"/></g><g opacity="1.00" transform="translate(478.3 340.0) rotate(1.0) translate(-51.0 -66.0)"><rect x="0" y="0" width="102.0" height="132.0" rx="3" fill="rgba(58,58,58,0.30)" stroke="#3a3a3a" stroke-width="1.45"/><path d="M22.4,0 L0,22.4 L22.4,22.4 Z" fill="rgba(58,58,58,0.28)" stroke="#3a3a3a" stroke-width="1.09"/><line x1="22.4" y1="0" x2="22.4" y2="22.4" stroke="#3a3a3a" stroke-width="1.09"/><line x1="18.4" y1="60.7" x2="71.4" y2="60.7" stroke="#3a3a3a" stroke-width="1.1" opacity="0.45"/><line x1="18.4" y1="81.8" x2="71.4" y2="81.8" stroke="#3a3a3a" stroke-width="1.1" opacity="0.45"/></g><g opacity="1.00" transform="translate(562.3 340.0) rotate(-2.7) translate(-51.0 -66.0)"><rect x="0" y="0" width="102.0" height="132.0" rx="3" fill="rgba(58,58,58,0.30)" stroke="#3a3a3a" stroke-width="1.45"/><path d="M22.4,0 L0,22.4 L22.4,22.4 Z" fill="rgba(58,58,58,0.28)" stroke="#3a3a3a" stroke-width="1.09"/><line x1="22.4" y1="0" x2="22.4" y2="22.4" stroke="#3a3a3a" stroke-width="1.09"/><line x1="18.4" y1="60.7" x2="71.4" y2="60.7" stroke="#3a3a3a" stroke-width="1.1" opacity="0.45"/><line x1="18.4" y1="81.8" x2="71.4" y2="81.8" stroke="#3a3a3a" stroke-width="1.1" opacity="0.45"/></g><g opacity="1.00" transform="translate(646.3 340.0) rotate(-0.5) translate(-51.0 -66.0)"><rect x="0" y="0" width="102.0" height="132.0" rx="3" fill="rgba(58,58,58,0.18)" stroke="#3a3a3a" stroke-width="1.45"/><path d="M22.4,0 L0,22.4 L22.4,22.4 Z" fill="rgba(58,58,58,0.28)" stroke="#3a3a3a" stroke-width="1.09"/><line x1="22.4" y1="0" x2="22.4" y2="22.4" stroke="#3a3a3a" stroke-width="1.09"/><line x1="18.4" y1="60.7" x2="71.4" y2="60.7" stroke="#3a3a3a" stroke-width="1.1" opacity="0.45"/><line x1="18.4" y1="81.8" x2="71.4" y2="81.8" stroke="#3a3a3a" stroke-width="1.1" opacity="0.45"/></g><g opacity="1.00" transform="translate(730.3 340.0) rotate(3.0) translate(-51.0 -66.0)"><rect x="0" y="0" width="102.0" height="132.0" rx="3" fill="rgba(58,58,58,0.18)" stroke="#3a3a3a" stroke-width="1.45"/><path d="M22.4,0 L0,22.4 L22.4,22.4 Z" fill="rgba(58,58,58,0.28)" stroke="#3a3a3a" stroke-width="1.09"/><line x1="22.4" y1="0" x2="22.4" y2="22.4" stroke="#3a3a3a" stroke-width="1.09"/><line x1="18.4" y1="60.7" x2="71.4" y2="60.7" stroke="#3a3a3a" stroke-width="1.1" opacity="0.45"/><line x1="18.4" y1="81.8" x2="71.4" y2="81.8" stroke="#3a3a3a" stroke-width="1.1" opacity="0.45"/></g><g opacity="1.00" transform="translate(814.3 340.0) rotate(-1.8) translate(-51.0 -66.0)"><rect x="0" y="0" width="102.0" height="132.0" rx="3" fill="rgba(58,58,58,0.24)" stroke="#3a3a3a" stroke-width="1.45"/><path d="M22.4,0 L0,22.4 L22.4,22.4 Z" fill="rgba(58,58,58,0.28)" stroke="#3a3a3a" stroke-width="1.09"/><line x1="22.4" y1="0" x2="22.4" y2="22.4" stroke="#3a3a3a" stroke-width="1.09"/><line x1="18.4" y1="60.7" x2="71.4" y2="60.7" stroke="#3a3a3a" stroke-width="1.1" opacity="0.45"/><line x1="18.4" y1="81.8" x2="71.4" y2="81.8" stroke="#3a3a3a" stroke-width="1.1" opacity="0.45"/></g><g opacity="1.00" transform="translate(898.3 340.0) rotate(1.5) translate(-51.0 -66.0)"><rect x="0" y="0" width="102.0" height="132.0" rx="3" fill="rgba(58,58,58,0.30)" stroke="#3a3a3a" stroke-width="1.45"/><path d="M22.4,0 L0,22.4 L22.4,22.4 Z" fill="rgba(58,58,58,0.28)" stroke="#3a3a3a" stroke-width="1.09"/><line x1="22.4" y1="0" x2="22.4" y2="22.4" stroke="#3a3a3a" stroke-width="1.09"/><line x1="18.4" y1="60.7" x2="71.4" y2="60.7" stroke="#3a3a3a" stroke-width="1.1" opacity="0.45"/><line x1="18.4" y1="81.8" x2="71.4" y2="81.8" stroke="#3a3a3a" stroke-width="1.1" opacity="0.45"/></g><g opacity="1.00" transform="translate(982.3 340.0) rotate(1.4) translate(-51.0 -66.0)"><rect x="0" y="0" width="102.0" height="132.0" rx="3" fill="rgba(58,58,58,0.24)" stroke="#3a3a3a" stroke-width="1.45"/><path d="M22.4,0 L0,22.4 L22.4,22.4 Z" fill="rgba(58,58,58,0.28)" stroke="#3a3a3a" stroke-width="1.09"/><line x1="22.4" y1="0" x2="22.4" y2="22.4" stroke="#3a3a3a" stroke-width="1.09"/><line x1="18.4" y1="60.7" x2="71.4" y2="60.7" stroke="#3a3a3a" stroke-width="1.1" opacity="0.45"/><line x1="18.4" y1="81.8" x2="71.4" y2="81.8" stroke="#3a3a3a" stroke-width="1.1" opacity="0.45"/></g><g opacity="1.00" transform="translate(23.0 440.0) rotate(-2.7) translate(-51.0 -66.0)"><rect x="0" y="0" width="102.0" height="132.0" rx="3" fill="rgba(58,58,58,0.30)" stroke="#3a3a3a" stroke-width="1.45"/><path d="M22.4,0 L0,22.4 L22.4,22.4 Z" fill="rgba(58,58,58,0.28)" stroke="#3a3a3a" stroke-width="1.09"/><line x1="22.4" y1="0" x2="22.4" y2="22.4" stroke="#3a3a3a" stroke-width="1.09"/><line x1="18.4" y1="60.7" x2="71.4" y2="60.7" stroke="#3a3a3a" stroke-width="1.1" opacity="0.45"/><line x1="18.4" y1="81.8" x2="71.4" y2="81.8" stroke="#3a3a3a" stroke-width="1.1" opacity="0.45"/></g><g opacity="1.00" transform="translate(107.0 440.0) rotate(-1.4) translate(-51.0 -66.0)"><rect x="0" y="0" width="102.0" height="132.0" rx="3" fill="rgba(58,58,58,0.18)" stroke="#3a3a3a" stroke-width="1.45"/><path d="M22.4,0 L0,22.4 L22.4,22.4 Z" fill="rgba(58,58,58,0.28)" stroke="#3a3a3a" stroke-width="1.09"/><line x1="22.4" y1="0" x2="22.4" y2="22.4" stroke="#3a3a3a" stroke-width="1.09"/><line x1="18.4" y1="60.7" x2="71.4" y2="60.7" stroke="#3a3a3a" stroke-width="1.1" opacity="0.45"/><line x1="18.4" y1="81.8" x2="71.4" y2="81.8" stroke="#3a3a3a" stroke-width="1.1" opacity="0.45"/></g><g opacity="1.00" transform="translate(191.0 440.0) rotate(2.7) translate(-51.0 -66.0)"><rect x="0" y="0" width="102.0" height="132.0" rx="3" fill="rgba(58,58,58,0.18)" stroke="#3a3a3a" stroke-width="1.45"/><path d="M22.4,0 L0,22.4 L22.4,22.4 Z" fill="rgba(58,58,58,0.28)" stroke="#3a3a3a" stroke-width="1.09"/><line x1="22.4" y1="0" x2="22.4" y2="22.4" stroke="#3a3a3a" stroke-width="1.09"/><line x1="18.4" y1="60.7" x2="71.4" y2="60.7" stroke="#3a3a3a" stroke-width="1.1" opacity="0.45"/><line x1="18.4" y1="81.8" x2="71.4" y2="81.8" stroke="#3a3a3a" stroke-width="1.1" opacity="0.45"/></g><g opacity="1.00" transform="translate(275.0 440.0) rotate(-1.4) translate(-51.0 -66.0)"><rect x="0" y="0" width="102.0" height="132.0" rx="3" fill="rgba(58,58,58,0.30)" stroke="#3a3a3a" stroke-width="1.45"/><path d="M22.4,0 L0,22.4 L22.4,22.4 Z" fill="rgba(58,58,58,0.28)" stroke="#3a3a3a" stroke-width="1.09"/><line x1="22.4" y1="0" x2="22.4" y2="22.4" stroke="#3a3a3a" stroke-width="1.09"/><line x1="18.4" y1="60.7" x2="71.4" y2="60.7" stroke="#3a3a3a" stroke-width="1.1" opacity="0.45"/><line x1="18.4" y1="81.8" x2="71.4" y2="81.8" stroke="#3a3a3a" stroke-width="1.1" opacity="0.45"/></g><g opacity="1.00" transform="translate(359.0 440.0) rotate(-1.1) translate(-51.0 -66.0)"><rect x="0" y="0" width="102.0" height="132.0" rx="3" fill="rgba(58,58,58,0.30)" stroke="#3a3a3a" stroke-width="1.45"/><path d="M22.4,0 L0,22.4 L22.4,22.4 Z" fill="rgba(58,58,58,0.28)" stroke="#3a3a3a" stroke-width="1.09"/><line x1="22.4" y1="0" x2="22.4" y2="22.4" stroke="#3a3a3a" stroke-width="1.09"/><line x1="18.4" y1="60.7" x2="71.4" y2="60.7" stroke="#3a3a3a" stroke-width="1.1" opacity="0.45"/><line x1="18.4" y1="81.8" x2="71.4" y2="81.8" stroke="#3a3a3a" stroke-width="1.1" opacity="0.45"/></g><g opacity="1.00" transform="translate(443.0 440.0) rotate(-0.8) translate(-51.0 -66.0)"><rect x="0" y="0" width="102.0" height="132.0" rx="3" fill="rgba(58,58,58,0.24)" stroke="#3a3a3a" stroke-width="1.45"/><path d="M22.4,0 L0,22.4 L22.4,22.4 Z" fill="rgba(58,58,58,0.28)" stroke="#3a3a3a" stroke-width="1.09"/><line x1="22.4" y1="0" x2="22.4" y2="22.4" stroke="#3a3a3a" stroke-width="1.09"/><line x1="18.4" y1="60.7" x2="71.4" y2="60.7" stroke="#3a3a3a" stroke-width="1.1" opacity="0.45"/><line x1="18.4" y1="81.8" x2="71.4" y2="81.8" stroke="#3a3a3a" stroke-width="1.1" opacity="0.45"/></g><g opacity="1.00" transform="translate(527.0 440.0) rotate(1.6) translate(-51.0 -66.0)"><rect x="0" y="0" width="102.0" height="132.0" rx="3" fill="rgba(58,58,58,0.30)" stroke="#3a3a3a" stroke-width="1.45"/><path d="M22.4,0 L0,22.4 L22.4,22.4 Z" fill="rgba(58,58,58,0.28)" stroke="#3a3a3a" stroke-width="1.09"/><line x1="22.4" y1="0" x2="22.4" y2="22.4" stroke="#3a3a3a" stroke-width="1.09"/><line x1="18.4" y1="60.7" x2="71.4" y2="60.7" stroke="#3a3a3a" stroke-width="1.1" opacity="0.45"/><line x1="18.4" y1="81.8" x2="71.4" y2="81.8" stroke="#3a3a3a" stroke-width="1.1" opacity="0.45"/></g><g opacity="1.00" transform="translate(611.0 440.0) rotate(-2.7) translate(-51.0 -66.0)"><rect x="0" y="0" width="102.0" height="132.0" rx="3" fill="rgba(58,58,58,0.30)" stroke="#3a3a3a" stroke-width="1.45"/><path d="M22.4,0 L0,22.4 L22.4,22.4 Z" fill="rgba(58,58,58,0.28)" stroke="#3a3a3a" stroke-width="1.09"/><line x1="22.4" y1="0" x2="22.4" y2="22.4" stroke="#3a3a3a" stroke-width="1.09"/><line x1="18.4" y1="60.7" x2="71.4" y2="60.7" stroke="#3a3a3a" stroke-width="1.1" opacity="0.45"/><line x1="18.4" y1="81.8" x2="71.4" y2="81.8" stroke="#3a3a3a" stroke-width="1.1" opacity="0.45"/></g><g opacity="1.00" transform="translate(695.0 440.0) rotate(-2.1) translate(-51.0 -66.0)"><rect x="0" y="0" width="102.0" height="132.0" rx="3" fill="rgba(58,58,58,0.18)" stroke="#3a3a3a" stroke-width="1.45"/><path d="M22.4,0 L0,22.4 L22.4,22.4 Z" fill="rgba(58,58,58,0.28)" stroke="#3a3a3a" stroke-width="1.09"/><line x1="22.4" y1="0" x2="22.4" y2="22.4" stroke="#3a3a3a" stroke-width="1.09"/><line x1="18.4" y1="60.7" x2="71.4" y2="60.7" stroke="#3a3a3a" stroke-width="1.1" opacity="0.45"/><line x1="18.4" y1="81.8" x2="71.4" y2="81.8" stroke="#3a3a3a" stroke-width="1.1" opacity="0.45"/></g><g opacity="1.00" transform="translate(779.0 440.0) rotate(-1.8) translate(-51.0 -66.0)"><rect x="0" y="0" width="102.0" height="132.0" rx="3" fill="rgba(58,58,58,0.24)" stroke="#3a3a3a" stroke-width="1.45"/><path d="M22.4,0 L0,22.4 L22.4,22.4 Z" fill="rgba(58,58,58,0.28)" stroke="#3a3a3a" stroke-width="1.09"/><line x1="22.4" y1="0" x2="22.4" y2="22.4" stroke="#3a3a3a" stroke-width="1.09"/><line x1="18.4" y1="60.7" x2="71.4" y2="60.7" stroke="#3a3a3a" stroke-width="1.1" opacity="0.45"/><line x1="18.4" y1="81.8" x2="71.4" y2="81.8" stroke="#3a3a3a" stroke-width="1.1" opacity="0.45"/></g><g opacity="1.00" transform="translate(863.0 440.0) rotate(1.1) translate(-51.0 -66.0)"><rect x="0" y="0" width="102.0" height="132.0" rx="3" fill="rgba(58,58,58,0.18)" stroke="#3a3a3a" stroke-width="1.45"/><path d="M22.4,0 L0,22.4 L22.4,22.4 Z" fill="rgba(58,58,58,0.28)" stroke="#3a3a3a" stroke-width="1.09"/><line x1="22.4" y1="0" x2="22.4" y2="22.4" stroke="#3a3a3a" stroke-width="1.09"/><line x1="18.4" y1="60.7" x2="71.4" y2="60.7" stroke="#3a3a3a" stroke-width="1.1" opacity="0.45"/><line x1="18.4" y1="81.8" x2="71.4" y2="81.8" stroke="#3a3a3a" stroke-width="1.1" opacity="0.45"/></g><g opacity="1.00" transform="translate(947.0 440.0) rotate(3.1) translate(-51.0 -66.0)"><rect x="0" y="0" width="102.0" height="132.0" rx="3" fill="rgba(58,58,58,0.30)" stroke="#3a3a3a" stroke-width="1.45"/><path d="M22.4,0 L0,22.4 L22.4,22.4 Z" fill="rgba(58,58,58,0.28)" stroke="#3a3a3a" stroke-width="1.09"/><line x1="22.4" y1="0" x2="22.4" y2="22.4" stroke="#3a3a3a" stroke-width="1.09"/><line x1="18.4" y1="60.7" x2="71.4" y2="60.7" stroke="#3a3a3a" stroke-width="1.1" opacity="0.45"/><line x1="18.4" y1="81.8" x2="71.4" y2="81.8" stroke="#3a3a3a" stroke-width="1.1" opacity="0.45"/></g><g opacity="1.00" transform="translate(58.3 540.0) rotate(0.4) translate(-51.0 -66.0)"><rect x="0" y="0" width="102.0" height="132.0" rx="3" fill="rgba(58,58,58,0.18)" stroke="#3a3a3a" stroke-width="1.45"/><path d="M22.4,0 L0,22.4 L22.4,22.4 Z" fill="rgba(58,58,58,0.28)" stroke="#3a3a3a" stroke-width="1.09"/><line x1="22.4" y1="0" x2="22.4" y2="22.4" stroke="#3a3a3a" stroke-width="1.09"/><line x1="18.4" y1="60.7" x2="71.4" y2="60.7" stroke="#3a3a3a" stroke-width="1.1" opacity="0.45"/><line x1="18.4" y1="81.8" x2="71.4" y2="81.8" stroke="#3a3a3a" stroke-width="1.1" opacity="0.45"/></g><g opacity="1.00" transform="translate(142.3 540.0) rotate(-0.0) translate(-51.0 -66.0)"><rect x="0" y="0" width="102.0" height="132.0" rx="3" fill="rgba(58,58,58,0.18)" stroke="#3a3a3a" stroke-width="1.45"/><path d="M22.4,0 L0,22.4 L22.4,22.4 Z" fill="rgba(58,58,58,0.28)" stroke="#3a3a3a" stroke-width="1.09"/><line x1="22.4" y1="0" x2="22.4" y2="22.4" stroke="#3a3a3a" stroke-width="1.09"/><line x1="18.4" y1="60.7" x2="71.4" y2="60.7" stroke="#3a3a3a" stroke-width="1.1" opacity="0.45"/><line x1="18.4" y1="81.8" x2="71.4" y2="81.8" stroke="#3a3a3a" stroke-width="1.1" opacity="0.45"/></g><g opacity="1.00" transform="translate(226.3 540.0) rotate(-1.7) translate(-51.0 -66.0)"><rect x="0" y="0" width="102.0" height="132.0" rx="3" fill="rgba(58,58,58,0.30)" stroke="#3a3a3a" stroke-width="1.45"/><path d="M22.4,0 L0,22.4 L22.4,22.4 Z" fill="rgba(58,58,58,0.28)" stroke="#3a3a3a" stroke-width="1.09"/><line x1="22.4" y1="0" x2="22.4" y2="22.4" stroke="#3a3a3a" stroke-width="1.09"/><line x1="18.4" y1="60.7" x2="71.4" y2="60.7" stroke="#3a3a3a" stroke-width="1.1" opacity="0.45"/><line x1="18.4" y1="81.8" x2="71.4" y2="81.8" stroke="#3a3a3a" stroke-width="1.1" opacity="0.45"/></g><g opacity="1.00" transform="translate(310.3 540.0) rotate(1.4) translate(-51.0 -66.0)"><rect x="0" y="0" width="102.0" height="132.0" rx="3" fill="rgba(58,58,58,0.24)" stroke="#3a3a3a" stroke-width="1.45"/><path d="M22.4,0 L0,22.4 L22.4,22.4 Z" fill="rgba(58,58,58,0.28)" stroke="#3a3a3a" stroke-width="1.09"/><line x1="22.4" y1="0" x2="22.4" y2="22.4" stroke="#3a3a3a" stroke-width="1.09"/><line x1="18.4" y1="60.7" x2="71.4" y2="60.7" stroke="#3a3a3a" stroke-width="1.1" opacity="0.45"/><line x1="18.4" y1="81.8" x2="71.4" y2="81.8" stroke="#3a3a3a" stroke-width="1.1" opacity="0.45"/></g><g opacity="1.00" transform="translate(394.3 540.0) rotate(0.6) translate(-51.0 -66.0)"><rect x="0" y="0" width="102.0" height="132.0" rx="3" fill="rgba(58,58,58,0.30)" stroke="#3a3a3a" stroke-width="1.45"/><path d="M22.4,0 L0,22.4 L22.4,22.4 Z" fill="rgba(58,58,58,0.28)" stroke="#3a3a3a" stroke-width="1.09"/><line x1="22.4" y1="0" x2="22.4" y2="22.4" stroke="#3a3a3a" stroke-width="1.09"/><line x1="18.4" y1="60.7" x2="71.4" y2="60.7" stroke="#3a3a3a" stroke-width="1.1" opacity="0.45"/><line x1="18.4" y1="81.8" x2="71.4" y2="81.8" stroke="#3a3a3a" stroke-width="1.1" opacity="0.45"/></g><g opacity="1.00" transform="translate(478.3 540.0) rotate(-2.0) translate(-51.0 -66.0)"><rect x="0" y="0" width="102.0" height="132.0" rx="3" fill="rgba(58,58,58,0.24)" stroke="#3a3a3a" stroke-width="1.45"/><path d="M22.4,0 L0,22.4 L22.4,22.4 Z" fill="rgba(58,58,58,0.28)" stroke="#3a3a3a" stroke-width="1.09"/><line x1="22.4" y1="0" x2="22.4" y2="22.4" stroke="#3a3a3a" stroke-width="1.09"/><line x1="18.4" y1="60.7" x2="71.4" y2="60.7" stroke="#3a3a3a" stroke-width="1.1" opacity="0.45"/><line x1="18.4" y1="81.8" x2="71.4" y2="81.8" stroke="#3a3a3a" stroke-width="1.1" opacity="0.45"/></g><g opacity="1.00" transform="translate(562.3 540.0) rotate(-0.7) translate(-51.0 -66.0)"><rect x="0" y="0" width="102.0" height="132.0" rx="3" fill="rgba(58,58,58,0.24)" stroke="#3a3a3a" stroke-width="1.45"/><path d="M22.4,0 L0,22.4 L22.4,22.4 Z" fill="rgba(58,58,58,0.28)" stroke="#3a3a3a" stroke-width="1.09"/><line x1="22.4" y1="0" x2="22.4" y2="22.4" stroke="#3a3a3a" stroke-width="1.09"/><line x1="18.4" y1="60.7" x2="71.4" y2="60.7" stroke="#3a3a3a" stroke-width="1.1" opacity="0.45"/><line x1="18.4" y1="81.8" x2="71.4" y2="81.8" stroke="#3a3a3a" stroke-width="1.1" opacity="0.45"/></g><g opacity="1.00" transform="translate(646.3 540.0) rotate(2.5) translate(-51.0 -66.0)"><rect x="0" y="0" width="102.0" height="132.0" rx="3" fill="rgba(58,58,58,0.24)" stroke="#3a3a3a" stroke-width="1.45"/><path d="M22.4,0 L0,22.4 L22.4,22.4 Z" fill="rgba(58,58,58,0.28)" stroke="#3a3a3a" stroke-width="1.09"/><line x1="22.4" y1="0" x2="22.4" y2="22.4" stroke="#3a3a3a" stroke-width="1.09"/><line x1="18.4" y1="60.7" x2="71.4" y2="60.7" stroke="#3a3a3a" stroke-width="1.1" opacity="0.45"/><line x1="18.4" y1="81.8" x2="71.4" y2="81.8" stroke="#3a3a3a" stroke-width="1.1" opacity="0.45"/></g><g opacity="1.00" transform="translate(730.3 540.0) rotate(-3.0) translate(-51.0 -66.0)"><rect x="0" y="0" width="102.0" height="132.0" rx="3" fill="rgba(58,58,58,0.30)" stroke="#3a3a3a" stroke-width="1.45"/><path d="M22.4,0 L0,22.4 L22.4,22.4 Z" fill="rgba(58,58,58,0.28)" stroke="#3a3a3a" stroke-width="1.09"/><line x1="22.4" y1="0" x2="22.4" y2="22.4" stroke="#3a3a3a" stroke-width="1.09"/><line x1="18.4" y1="60.7" x2="71.4" y2="60.7" stroke="#3a3a3a" stroke-width="1.1" opacity="0.45"/><line x1="18.4" y1="81.8" x2="71.4" y2="81.8" stroke="#3a3a3a" stroke-width="1.1" opacity="0.45"/></g><g opacity="1.00" transform="translate(814.3 540.0) rotate(1.3) translate(-51.0 -66.0)"><rect x="0" y="0" width="102.0" height="132.0" rx="3" fill="rgba(58,58,58,0.18)" stroke="#3a3a3a" stroke-width="1.45"/><path d="M22.4,0 L0,22.4 L22.4,22.4 Z" fill="rgba(58,58,58,0.28)" stroke="#3a3a3a" stroke-width="1.09"/><line x1="22.4" y1="0" x2="22.4" y2="22.4" stroke="#3a3a3a" stroke-width="1.09"/><line x1="18.4" y1="60.7" x2="71.4" y2="60.7" stroke="#3a3a3a" stroke-width="1.1" opacity="0.45"/><line x1="18.4" y1="81.8" x2="71.4" y2="81.8" stroke="#3a3a3a" stroke-width="1.1" opacity="0.45"/></g><g opacity="1.00" transform="translate(898.3 540.0) rotate(0.9) translate(-51.0 -66.0)"><rect x="0" y="0" width="102.0" height="132.0" rx="3" fill="rgba(58,58,58,0.30)" stroke="#3a3a3a" stroke-width="1.45"/><path d="M22.4,0 L0,22.4 L22.4,22.4 Z" fill="rgba(58,58,58,0.28)" stroke="#3a3a3a" stroke-width="1.09"/><line x1="22.4" y1="0" x2="22.4" y2="22.4" stroke="#3a3a3a" stroke-width="1.09"/><line x1="18.4" y1="60.7" x2="71.4" y2="60.7" stroke="#3a3a3a" stroke-width="1.1" opacity="0.45"/><line x1="18.4" y1="81.8" x2="71.4" y2="81.8" stroke="#3a3a3a" stroke-width="1.1" opacity="0.45"/></g><g opacity="1.00" transform="translate(982.3 540.0) rotate(0.1) translate(-51.0 -66.0)"><rect x="0" y="0" width="102.0" height="132.0" rx="3" fill="rgba(58,58,58,0.18)" stroke="#3a3a3a" stroke-width="1.45"/><path d="M22.4,0 L0,22.4 L22.4,22.4 Z" fill="rgba(58,58,58,0.28)" stroke="#3a3a3a" stroke-width="1.09"/><line x1="22.4" y1="0" x2="22.4" y2="22.4" stroke="#3a3a3a" stroke-width="1.09"/><line x1="18.4" y1="60.7" x2="71.4" y2="60.7" stroke="#3a3a3a" stroke-width="1.1" opacity="0.45"/><line x1="18.4" y1="81.8" x2="71.4" y2="81.8" stroke="#3a3a3a" stroke-width="1.1" opacity="0.45"/></g>
</svg>
